# Blender 3.3.1
# www.blender.org
o cb-segment.002
v -0.350000 0.000000 32.000000
v -0.140000 1.100000 32.000000
v -0.350000 0.000000 -32.000000
v -0.140000 1.100000 -32.000000
v 0.350000 0.000000 32.000000
v 0.140000 1.100000 32.000000
v 0.350000 0.000000 -32.000000
v 0.140000 1.100000 -32.000000
v -0.350000 0.000000 -29.333334
v -0.350000 0.000000 -26.666668
v -0.350000 0.000000 -24.000002
v -0.350000 0.000000 -21.333336
v -0.350000 0.000000 -18.666670
v -0.350000 0.000000 -16.000004
v -0.350000 0.000000 -13.333337
v -0.350000 0.000000 -10.666670
v -0.350000 0.000000 -8.000003
v -0.350000 0.000000 -5.333336
v -0.350000 0.000000 -2.666669
v -0.350000 0.000000 -0.000002
v -0.350000 0.000000 2.666665
v -0.350000 0.000000 5.333332
v -0.350000 0.000000 7.999999
v -0.350000 0.000000 10.666666
v -0.350000 0.000000 13.333333
v -0.350000 0.000000 16.000000
v -0.350000 0.000000 18.666666
v -0.350000 0.000000 21.333332
v -0.350000 0.000000 24.000000
v -0.350000 0.000000 26.666666
v -0.350000 0.000000 29.333332
v -0.140000 1.100000 29.333334
v -0.140000 1.100000 26.666668
v -0.140000 1.100000 24.000002
v -0.140000 1.100000 21.333336
v -0.140000 1.100000 18.666670
v -0.140000 1.100000 16.000004
v -0.140000 1.100000 13.333337
v -0.140000 1.100000 10.666670
v -0.140000 1.100000 8.000003
v -0.140000 1.100000 5.333336
v -0.140000 1.100000 2.666669
v -0.140000 1.100000 0.000002
v -0.140000 1.100000 -2.666665
v -0.140000 1.100000 -5.333332
v -0.140000 1.100000 -7.999999
v -0.140000 1.100000 -10.666666
v -0.140000 1.100000 -13.333333
v -0.140000 1.100000 -16.000000
v -0.140000 1.100000 -18.666666
v -0.140000 1.100000 -21.333332
v -0.140000 1.100000 -24.000000
v -0.140000 1.100000 -26.666666
v -0.140000 1.100000 -29.333332
v 0.350000 0.000000 29.333334
v 0.350000 0.000000 26.666668
v 0.350000 0.000000 24.000002
v 0.350000 0.000000 21.333336
v 0.350000 0.000000 18.666670
v 0.350000 0.000000 16.000004
v 0.350000 0.000000 13.333337
v 0.350000 0.000000 10.666670
v 0.350000 0.000000 8.000003
v 0.350000 0.000000 5.333336
v 0.350000 0.000000 2.666669
v 0.350000 0.000000 0.000002
v 0.350000 0.000000 -2.666665
v 0.350000 0.000000 -5.333332
v 0.350000 0.000000 -7.999999
v 0.350000 0.000000 -10.666666
v 0.350000 0.000000 -13.333333
v 0.350000 0.000000 -16.000000
v 0.350000 0.000000 -18.666666
v 0.350000 0.000000 -21.333332
v 0.350000 0.000000 -24.000000
v 0.350000 0.000000 -26.666666
v 0.350000 0.000000 -29.333332
v 0.140000 1.100000 -29.333334
v 0.140000 1.100000 -26.666668
v 0.140000 1.100000 -24.000002
v 0.140000 1.100000 -21.333336
v 0.140000 1.100000 -18.666670
v 0.140000 1.100000 -16.000004
v 0.140000 1.100000 -13.333337
v 0.140000 1.100000 -10.666670
v 0.140000 1.100000 -8.000003
v 0.140000 1.100000 -5.333336
v 0.140000 1.100000 -2.666669
v 0.140000 1.100000 -0.000002
v 0.140000 1.100000 2.666665
v 0.140000 1.100000 5.333332
v 0.140000 1.100000 7.999999
v 0.140000 1.100000 10.666666
v 0.140000 1.100000 13.333333
v 0.140000 1.100000 16.000000
v 0.140000 1.100000 18.666666
v 0.140000 1.100000 21.333332
v 0.140000 1.100000 24.000000
v 0.140000 1.100000 26.666666
v 0.140000 1.100000 29.333332
v 0.000000 1.100000 -32.000000
v 0.000000 1.100000 32.000000
v 0.000000 1.100000 -29.333332
v 0.000000 1.100000 -26.666668
v 0.000000 1.100000 -24.000000
v 0.000000 1.100000 -21.333334
v 0.000000 1.100000 -18.666668
v 0.000000 1.100000 -16.000002
v 0.000000 1.100000 -13.333335
v 0.000000 1.100000 -10.666668
v 0.000000 1.100000 -8.000001
v 0.000000 1.100000 -5.333334
v 0.000000 1.100000 -2.666667
v 0.000000 1.100000 0.000000
v 0.000000 1.100000 2.666667
v 0.000000 1.100000 5.333334
v 0.000000 1.100000 8.000001
v 0.000000 1.100000 10.666668
v 0.000000 1.100000 13.333335
v 0.000000 1.100000 16.000002
v 0.000000 1.100000 18.666668
v 0.000000 1.100000 21.333334
v 0.000000 1.100000 24.000000
v 0.000000 1.100000 26.666668
v 0.000000 1.100000 29.333332
vn -0.9823 0.1875 -0.0000
vn 0.9823 0.1875 -0.0000
vn -0.0000 1.0000 -0.0000
vn -0.0000 -0.0000 -1.0000
vn -0.0000 -0.0000 1.0000
vt 0.992822 6.736370
vt 0.989961 0.155900
vt 0.115038 6.736370
vt 0.135814 0.177210
vt 0.992836 -5.235708
vt 0.989961 0.095470
vt 0.115053 -5.235710
vt 0.135814 0.074160
vt 0.994916 6.736370
vt 0.989961 0.226933
vt 0.135814 0.205623
vt 0.117132 6.736370
vt 0.994917 -5.235708
vt 0.989961 0.024437
vt 0.135814 0.045747
vt 0.117133 -5.235708
vt 0.992837 -4.736872
vt 0.992838 -4.238037
vt 0.992838 -3.739200
vt 0.992839 -3.240363
vt 0.992839 -2.741527
vt 0.992838 -2.242691
vt 0.992837 -1.743854
vt 0.992836 -1.245018
vt 0.992836 -0.746181
vt 0.992835 -0.247344
vt 0.992836 0.251492
vt 0.992835 0.750329
vt 0.992833 1.249165
vt 0.992834 1.748003
vt 0.992833 2.246839
vt 0.992831 2.745676
vt 0.992830 3.244512
vt 0.992830 3.743347
vt 0.992829 4.242185
vt 0.992828 4.741020
vt 0.992826 5.239860
vt 0.992825 5.738693
vt 0.992823 6.237531
vt 0.115040 6.237531
vt 0.115041 5.738694
vt 0.115043 5.239860
vt 0.115044 4.741020
vt 0.115046 4.242185
vt 0.115047 3.743349
vt 0.115048 3.244512
vt 0.115048 2.745677
vt 0.115049 2.246840
vt 0.115050 1.748003
vt 0.115050 1.249167
vt 0.115051 0.750330
vt 0.115052 0.251493
vt 0.115053 -0.247344
vt 0.115053 -0.746180
vt 0.115054 -1.245016
vt 0.115055 -1.743853
vt 0.115055 -2.242690
vt 0.115055 -2.741527
vt 0.115055 -3.240363
vt 0.115056 -3.739200
vt 0.115055 -4.238037
vt 0.115054 -4.736872
vt 0.994916 6.237531
vt 0.994914 5.738693
vt 0.994913 5.239859
vt 0.994913 4.741020
vt 0.994912 4.242185
vt 0.994911 3.743349
vt 0.994911 3.244512
vt 0.994911 2.745677
vt 0.994911 2.246840
vt 0.994911 1.748003
vt 0.994912 1.249167
vt 0.994912 0.750330
vt 0.994911 0.251493
vt 0.994912 -0.247344
vt 0.994912 -0.746180
vt 0.994912 -1.245016
vt 0.994913 -1.743853
vt 0.994912 -2.242690
vt 0.994912 -2.741527
vt 0.994913 -3.240363
vt 0.994914 -3.739200
vt 0.994914 -4.238035
vt 0.994916 -4.736872
vt 0.117132 -4.736872
vt 0.117132 -4.238037
vt 0.117130 -3.739199
vt 0.117130 -3.240363
vt 0.117130 -2.741527
vt 0.117130 -2.242691
vt 0.117130 -1.743854
vt 0.117128 -1.245018
vt 0.117128 -0.746181
vt 0.117128 -0.247345
vt 0.117128 0.251492
vt 0.117128 0.750329
vt 0.117128 1.249165
vt 0.117128 1.748003
vt 0.117128 2.246839
vt 0.117128 2.745675
vt 0.117128 3.244512
vt 0.117128 3.743347
vt 0.117128 4.242185
vt 0.117130 4.741020
vt 0.117130 5.239859
vt 0.117131 5.738693
vt 0.117132 6.237531
vt 0.005318 -5.235709
vt 0.007398 -5.235709
vt 0.135814 0.059954
vt 0.005302 6.736370
vt 0.007396 6.736370
vt 0.135814 0.191417
vt 0.005318 -4.736872
vt 0.007396 -4.736872
vt 0.005319 -4.238037
vt 0.007395 -4.238037
vt 0.005320 -3.739199
vt 0.007394 -3.739199
vt 0.005319 -3.240363
vt 0.007394 -3.240363
vt 0.005318 -2.741527
vt 0.007394 -2.741527
vt 0.005319 -2.242690
vt 0.007393 -2.242690
vt 0.005318 -1.743854
vt 0.007393 -1.743854
vt 0.005318 -1.245017
vt 0.007392 -1.245017
vt 0.005317 -0.746181
vt 0.007392 -0.746180
vt 0.005316 -0.247344
vt 0.007392 -0.247344
vt 0.005316 0.251492
vt 0.007392 0.251492
vt 0.005315 0.750329
vt 0.007392 0.750329
vt 0.005314 1.249166
vt 0.007392 1.249166
vt 0.005314 1.748003
vt 0.007392 1.748003
vt 0.005313 2.246840
vt 0.007392 2.246840
vt 0.005312 2.745676
vt 0.007392 2.745676
vt 0.005311 3.244512
vt 0.007392 3.244512
vt 0.005311 3.743349
vt 0.007392 3.743349
vt 0.005310 4.242185
vt 0.007392 4.242185
vt 0.005308 4.741020
vt 0.007394 4.741020
vt 0.005307 5.239859
vt 0.007394 5.239859
vt 0.005305 5.738694
vt 0.007395 5.738694
vt 0.005304 6.237531
vt 0.007396 6.237531
s 0
f 9/17/1 4/7/1 3/5/1
f 55/63/2 6/12/2 5/9/2
f 32/40/3 102/112/3 125/159/3
f 4/7/3 103/115/3 101/109/3
f 54/62/3 104/117/3 103/115/3
f 53/61/3 105/119/3 104/117/3
f 52/60/3 106/121/3 105/119/3
f 51/59/3 107/123/3 106/121/3
f 50/58/3 108/125/3 107/123/3
f 49/57/3 109/127/3 108/125/3
f 48/56/3 110/129/3 109/127/3
f 47/55/3 111/131/3 110/129/3
f 46/54/3 112/133/3 111/131/3
f 45/53/3 113/135/3 112/133/3
f 44/52/3 114/137/3 113/135/3
f 43/51/3 115/139/3 114/137/3
f 42/50/3 116/141/3 115/139/3
f 41/49/3 117/143/3 116/141/3
f 40/48/3 118/145/3 117/143/3
f 39/47/3 119/147/3 118/145/3
f 38/46/3 120/149/3 119/147/3
f 37/45/3 121/151/3 120/149/3
f 36/44/3 122/153/3 121/151/3
f 35/43/3 123/155/3 122/153/3
f 34/42/3 124/157/3 123/155/3
f 33/41/3 125/159/3 124/157/3
f 7/13/2 78/86/2 77/85/2
f 77/85/2 79/87/2 76/84/2
f 76/84/2 80/88/2 75/83/2
f 75/83/2 81/89/2 74/82/2
f 74/82/2 82/90/2 73/81/2
f 73/81/2 83/91/2 72/80/2
f 72/80/2 84/92/2 71/79/2
f 71/79/2 85/93/2 70/78/2
f 70/78/2 86/94/2 69/77/2
f 69/77/2 87/95/2 68/76/2
f 68/76/2 88/96/2 67/75/2
f 67/75/2 89/97/2 66/74/2
f 66/74/2 90/98/2 65/73/2
f 65/73/2 91/99/2 64/72/2
f 64/72/2 92/100/2 63/71/2
f 63/71/2 93/101/2 62/70/2
f 62/70/2 94/102/2 61/69/2
f 61/69/2 95/103/2 60/68/2
f 60/68/2 96/104/2 59/67/2
f 59/67/2 97/105/2 58/66/2
f 58/66/2 98/106/2 57/65/2
f 57/65/2 99/107/2 56/64/2
f 56/64/2 100/108/2 55/63/2
f 1/1/1 32/40/1 31/39/1
f 31/39/1 33/41/1 30/38/1
f 30/38/1 34/42/1 29/37/1
f 29/37/1 35/43/1 28/36/1
f 28/36/1 36/44/1 27/35/1
f 27/35/1 37/45/1 26/34/1
f 26/34/1 38/46/1 25/33/1
f 25/33/1 39/47/1 24/32/1
f 24/32/1 40/48/1 23/31/1
f 23/31/1 41/49/1 22/30/1
f 22/30/1 42/50/1 21/29/1
f 21/29/1 43/51/1 20/28/1
f 20/28/1 44/52/1 19/27/1
f 19/27/1 45/53/1 18/26/1
f 18/26/1 46/54/1 17/25/1
f 17/25/1 47/55/1 16/24/1
f 16/24/1 48/56/1 15/23/1
f 15/23/1 49/57/1 14/22/1
f 14/22/1 50/58/1 13/21/1
f 13/21/1 51/59/1 12/20/1
f 12/20/1 52/60/1 11/19/1
f 11/19/1 53/61/1 10/18/1
f 10/18/1 54/62/1 9/17/1
f 124/158/3 100/108/3 99/107/3
f 123/156/3 99/107/3 98/106/3
f 122/154/3 98/106/3 97/105/3
f 121/152/3 97/105/3 96/104/3
f 120/150/3 96/104/3 95/103/3
f 119/148/3 95/103/3 94/102/3
f 118/146/3 94/102/3 93/101/3
f 117/144/3 93/101/3 92/100/3
f 116/142/3 92/100/3 91/99/3
f 115/140/3 91/99/3 90/98/3
f 114/138/3 90/98/3 89/97/3
f 113/136/3 89/97/3 88/96/3
f 112/134/3 88/96/3 87/95/3
f 111/132/3 87/95/3 86/94/3
f 110/130/3 86/94/3 85/93/3
f 109/128/3 85/93/3 84/92/3
f 108/126/3 84/92/3 83/91/3
f 107/124/3 83/91/3 82/90/3
f 106/122/3 82/90/3 81/89/3
f 105/120/3 81/89/3 80/88/3
f 104/118/3 80/88/3 79/87/3
f 103/116/3 79/87/3 78/86/3
f 101/110/3 78/86/3 8/16/3
f 125/160/3 6/12/3 100/108/3
f 101/111/4 8/15/4 7/14/4
f 5/10/5 6/11/5 102/114/5
f 9/17/1 54/62/1 4/7/1
f 55/63/2 100/108/2 6/12/2
f 32/40/3 2/3/3 102/112/3
f 4/7/3 54/62/3 103/115/3
f 54/62/3 53/61/3 104/117/3
f 53/61/3 52/60/3 105/119/3
f 52/60/3 51/59/3 106/121/3
f 51/59/3 50/58/3 107/123/3
f 50/58/3 49/57/3 108/125/3
f 49/57/3 48/56/3 109/127/3
f 48/56/3 47/55/3 110/129/3
f 47/55/3 46/54/3 111/131/3
f 46/54/3 45/53/3 112/133/3
f 45/53/3 44/52/3 113/135/3
f 44/52/3 43/51/3 114/137/3
f 43/51/3 42/50/3 115/139/3
f 42/50/3 41/49/3 116/141/3
f 41/49/3 40/48/3 117/143/3
f 40/48/3 39/47/3 118/145/3
f 39/47/3 38/46/3 119/147/3
f 38/46/3 37/45/3 120/149/3
f 37/45/3 36/44/3 121/151/3
f 36/44/3 35/43/3 122/153/3
f 35/43/3 34/42/3 123/155/3
f 34/42/3 33/41/3 124/157/3
f 33/41/3 32/40/3 125/159/3
f 7/13/2 8/16/2 78/86/2
f 77/85/2 78/86/2 79/87/2
f 76/84/2 79/87/2 80/88/2
f 75/83/2 80/88/2 81/89/2
f 74/82/2 81/89/2 82/90/2
f 73/81/2 82/90/2 83/91/2
f 72/80/2 83/91/2 84/92/2
f 71/79/2 84/92/2 85/93/2
f 70/78/2 85/93/2 86/94/2
f 69/77/2 86/94/2 87/95/2
f 68/76/2 87/95/2 88/96/2
f 67/75/2 88/96/2 89/97/2
f 66/74/2 89/97/2 90/98/2
f 65/73/2 90/98/2 91/99/2
f 64/72/2 91/99/2 92/100/2
f 63/71/2 92/100/2 93/101/2
f 62/70/2 93/101/2 94/102/2
f 61/69/2 94/102/2 95/103/2
f 60/68/2 95/103/2 96/104/2
f 59/67/2 96/104/2 97/105/2
f 58/66/2 97/105/2 98/106/2
f 57/65/2 98/106/2 99/107/2
f 56/64/2 99/107/2 100/108/2
f 1/1/1 2/3/1 32/40/1
f 31/39/1 32/40/1 33/41/1
f 30/38/1 33/41/1 34/42/1
f 29/37/1 34/42/1 35/43/1
f 28/36/1 35/43/1 36/44/1
f 27/35/1 36/44/1 37/45/1
f 26/34/1 37/45/1 38/46/1
f 25/33/1 38/46/1 39/47/1
f 24/32/1 39/47/1 40/48/1
f 23/31/1 40/48/1 41/49/1
f 22/30/1 41/49/1 42/50/1
f 21/29/1 42/50/1 43/51/1
f 20/28/1 43/51/1 44/52/1
f 19/27/1 44/52/1 45/53/1
f 18/26/1 45/53/1 46/54/1
f 17/25/1 46/54/1 47/55/1
f 16/24/1 47/55/1 48/56/1
f 15/23/1 48/56/1 49/57/1
f 14/22/1 49/57/1 50/58/1
f 13/21/1 50/58/1 51/59/1
f 12/20/1 51/59/1 52/60/1
f 11/19/1 52/60/1 53/61/1
f 10/18/1 53/61/1 54/62/1
f 124/158/3 125/160/3 100/108/3
f 123/156/3 124/158/3 99/107/3
f 122/154/3 123/156/3 98/106/3
f 121/152/3 122/154/3 97/105/3
f 120/150/3 121/152/3 96/104/3
f 119/148/3 120/150/3 95/103/3
f 118/146/3 119/148/3 94/102/3
f 117/144/3 118/146/3 93/101/3
f 116/142/3 117/144/3 92/100/3
f 115/140/3 116/142/3 91/99/3
f 114/138/3 115/140/3 90/98/3
f 113/136/3 114/138/3 89/97/3
f 112/134/3 113/136/3 88/96/3
f 111/132/3 112/134/3 87/95/3
f 110/130/3 111/132/3 86/94/3
f 109/128/3 110/130/3 85/93/3
f 108/126/3 109/128/3 84/92/3
f 107/124/3 108/126/3 83/91/3
f 106/122/3 107/124/3 82/90/3
f 105/120/3 106/122/3 81/89/3
f 104/118/3 105/120/3 80/88/3
f 103/116/3 104/118/3 79/87/3
f 101/110/3 103/116/3 78/86/3
f 125/160/3 102/113/3 6/12/3
f 7/14/4 3/6/4 101/111/4
f 3/6/4 4/8/4 101/111/4
f 102/114/5 2/4/5 1/2/5
f 1/2/5 5/10/5 102/114/5
