# Blender 3.3.1
# www.blender.org
o cb-lhs-segment
v -0.350000 0.000000 32.000000
v -0.140000 1.100000 32.000000
v -0.350000 0.000000 -32.000000
v -0.140000 1.100000 -32.000000
v 0.350000 0.000000 32.000000
v 0.140000 1.100000 32.000000
v 0.350000 0.000000 -32.000000
v 0.140000 1.100000 -32.000000
v -0.350000 0.000000 -29.333334
v -0.350000 0.000000 -26.666668
v -0.350000 0.000000 -24.000002
v -0.350000 0.000000 -21.333336
v -0.350000 0.000000 -18.666670
v -0.350000 0.000000 -16.000004
v -0.350000 0.000000 -13.333337
v -0.350000 0.000000 -10.666670
v -0.350000 0.000000 -8.000003
v -0.350000 0.000000 -5.333336
v -0.350000 0.000000 -2.666669
v -0.350000 0.000000 -0.000002
v -0.350000 0.000000 2.666665
v -0.350000 0.000000 5.333332
v -0.350000 0.000000 7.999999
v -0.350000 0.000000 10.666666
v -0.350000 0.000000 13.333333
v -0.350000 0.000000 16.000000
v -0.350000 0.000000 18.666666
v -0.350000 0.000000 21.333332
v -0.350000 0.000000 24.000000
v -0.350000 0.000000 26.666666
v -0.350000 0.000000 29.333332
v -0.140000 1.100000 29.333334
v -0.140000 1.100000 26.666668
v -0.140000 1.100000 24.000002
v -0.140000 1.100000 21.333336
v -0.140000 1.100000 18.666670
v -0.140000 1.100000 16.000004
v -0.140000 1.100000 13.333337
v -0.140000 1.100000 10.666670
v -0.140000 1.100000 8.000003
v -0.140000 1.100000 5.333336
v -0.140000 1.100000 2.666669
v -0.140000 1.100000 0.000002
v -0.140000 1.100000 -2.666665
v -0.140000 1.100000 -5.333332
v -0.140000 1.100000 -7.999999
v -0.140000 1.100000 -10.666666
v -0.140000 1.100000 -13.333333
v -0.140000 1.100000 -16.000000
v -0.140000 1.100000 -18.666666
v -0.140000 1.100000 -21.333332
v -0.140000 1.100000 -24.000000
v -0.140000 1.100000 -26.666666
v -0.140000 1.100000 -29.333332
v 0.350000 0.000000 29.333334
v 0.350000 0.000000 26.666668
v 0.350000 0.000000 24.000002
v 0.350000 0.000000 21.333336
v 0.350000 0.000000 18.666670
v 0.350000 0.000000 16.000004
v 0.350000 0.000000 13.333337
v 0.350000 0.000000 10.666670
v 0.350000 0.000000 8.000003
v 0.350000 0.000000 5.333336
v 0.350000 0.000000 2.666669
v 0.350000 0.000000 0.000002
v 0.350000 0.000000 -2.666665
v 0.350000 0.000000 -5.333332
v 0.350000 0.000000 -7.999999
v 0.350000 0.000000 -10.666666
v 0.350000 0.000000 -13.333333
v 0.350000 0.000000 -16.000000
v 0.350000 0.000000 -18.666666
v 0.350000 0.000000 -21.333332
v 0.350000 0.000000 -24.000000
v 0.350000 0.000000 -26.666666
v 0.350000 0.000000 -29.333332
v 0.140000 1.100000 -29.333334
v 0.140000 1.100000 -26.666668
v 0.140000 1.100000 -24.000002
v 0.140000 1.100000 -21.333336
v 0.140000 1.100000 -18.666670
v 0.140000 1.100000 -16.000004
v 0.140000 1.100000 -13.333337
v 0.140000 1.100000 -10.666670
v 0.140000 1.100000 -8.000003
v 0.140000 1.100000 -5.333336
v 0.140000 1.100000 -2.666669
v 0.140000 1.100000 -0.000002
v 0.140000 1.100000 2.666665
v 0.140000 1.100000 5.333332
v 0.140000 1.100000 7.999999
v 0.140000 1.100000 10.666666
v 0.140000 1.100000 13.333333
v 0.140000 1.100000 16.000000
v 0.140000 1.100000 18.666666
v 0.140000 1.100000 21.333332
v 0.140000 1.100000 24.000000
v 0.140000 1.100000 26.666666
v 0.140000 1.100000 29.333332
vn -0.9823 0.1875 -0.0000
vn 0.9823 0.1875 -0.0000
vn -0.0000 1.0000 -0.0000
vt 0.005868 3.503956
vt 0.445092 3.503956
vt 0.005870 -2.504027
vt 0.445092 -2.504028
vt 0.994133 3.503956
vt 0.554910 3.503956
vt 0.994134 -2.504027
vt 0.554911 -2.504027
vt 0.005869 -2.253695
vt 0.005868 -2.003363
vt 0.005868 -1.753031
vt 0.005867 -1.502698
vt 0.005867 -1.252365
vt 0.005867 -1.002033
vt 0.005867 -0.751700
vt 0.005867 -0.501367
vt 0.005867 -0.251035
vt 0.005867 -0.000702
vt 0.005866 0.249631
vt 0.005866 0.499963
vt 0.005867 0.750296
vt 0.005866 1.000629
vt 0.005866 1.250961
vt 0.005867 1.501294
vt 0.005867 1.751627
vt 0.005867 2.001959
vt 0.005867 2.252292
vt 0.005867 2.502624
vt 0.005868 2.752958
vt 0.005868 3.003289
vt 0.005868 3.253623
vt 0.445091 3.253623
vt 0.445091 3.003290
vt 0.445090 2.752958
vt 0.445090 2.502624
vt 0.445089 2.252292
vt 0.445089 2.001960
vt 0.445089 1.751627
vt 0.445089 1.501294
vt 0.445089 1.250962
vt 0.445089 1.000629
vt 0.445089 0.750297
vt 0.445089 0.499964
vt 0.445089 0.249631
vt 0.445089 -0.000702
vt 0.445089 -0.251034
vt 0.445089 -0.501367
vt 0.445089 -0.751700
vt 0.445089 -1.002032
vt 0.445090 -1.252365
vt 0.445090 -1.502698
vt 0.445090 -1.753030
vt 0.445091 -2.003363
vt 0.445092 -2.253695
vt 0.994133 3.253623
vt 0.994132 3.003289
vt 0.994132 2.752957
vt 0.994132 2.502624
vt 0.994131 2.252292
vt 0.994131 2.001960
vt 0.994131 1.751627
vt 0.994131 1.501294
vt 0.994131 1.250962
vt 0.994131 1.000629
vt 0.994131 0.750297
vt 0.994131 0.499964
vt 0.994131 0.249631
vt 0.994131 -0.000702
vt 0.994131 -0.251034
vt 0.994131 -0.501367
vt 0.994132 -0.751700
vt 0.994131 -1.002032
vt 0.994131 -1.252365
vt 0.994132 -1.502698
vt 0.994132 -1.753030
vt 0.994132 -2.003362
vt 0.994133 -2.253695
vt 0.554910 -2.253695
vt 0.554910 -2.003363
vt 0.554909 -1.753030
vt 0.554909 -1.502698
vt 0.554909 -1.252365
vt 0.554909 -1.002033
vt 0.554909 -0.751700
vt 0.554908 -0.501367
vt 0.554908 -0.251035
vt 0.554908 -0.000702
vt 0.554908 0.249631
vt 0.554908 0.499963
vt 0.554908 0.750296
vt 0.554908 1.000629
vt 0.554908 1.250961
vt 0.554908 1.501294
vt 0.554908 1.751627
vt 0.554908 2.001959
vt 0.554908 2.252292
vt 0.554909 2.502624
vt 0.554909 2.752957
vt 0.554910 3.003289
vt 0.554910 3.253623
s 0
f 9/9/1 54/54/1 4/4/1 3/3/1
f 55/55/2 100/100/2 6/6/2 5/5/2
f 100/100/3 32/32/3 2/2/3 6/6/3
f 8/8/3 4/4/3 54/54/3 78/78/3
f 78/78/3 54/54/3 53/53/3 79/79/3
f 79/79/3 53/53/3 52/52/3 80/80/3
f 80/80/3 52/52/3 51/51/3 81/81/3
f 81/81/3 51/51/3 50/50/3 82/82/3
f 82/82/3 50/50/3 49/49/3 83/83/3
f 83/83/3 49/49/3 48/48/3 84/84/3
f 84/84/3 48/48/3 47/47/3 85/85/3
f 85/85/3 47/47/3 46/46/3 86/86/3
f 86/86/3 46/46/3 45/45/3 87/87/3
f 87/87/3 45/45/3 44/44/3 88/88/3
f 88/88/3 44/44/3 43/43/3 89/89/3
f 89/89/3 43/43/3 42/42/3 90/90/3
f 90/90/3 42/42/3 41/41/3 91/91/3
f 91/91/3 41/41/3 40/40/3 92/92/3
f 92/92/3 40/40/3 39/39/3 93/93/3
f 93/93/3 39/39/3 38/38/3 94/94/3
f 94/94/3 38/38/3 37/37/3 95/95/3
f 95/95/3 37/37/3 36/36/3 96/96/3
f 96/96/3 36/36/3 35/35/3 97/97/3
f 97/97/3 35/35/3 34/34/3 98/98/3
f 98/98/3 34/34/3 33/33/3 99/99/3
f 99/99/3 33/33/3 32/32/3 100/100/3
f 7/7/2 8/8/2 78/78/2 77/77/2
f 77/77/2 78/78/2 79/79/2 76/76/2
f 76/76/2 79/79/2 80/80/2 75/75/2
f 75/75/2 80/80/2 81/81/2 74/74/2
f 74/74/2 81/81/2 82/82/2 73/73/2
f 73/73/2 82/82/2 83/83/2 72/72/2
f 72/72/2 83/83/2 84/84/2 71/71/2
f 71/71/2 84/84/2 85/85/2 70/70/2
f 70/70/2 85/85/2 86/86/2 69/69/2
f 69/69/2 86/86/2 87/87/2 68/68/2
f 68/68/2 87/87/2 88/88/2 67/67/2
f 67/67/2 88/88/2 89/89/2 66/66/2
f 66/66/2 89/89/2 90/90/2 65/65/2
f 65/65/2 90/90/2 91/91/2 64/64/2
f 64/64/2 91/91/2 92/92/2 63/63/2
f 63/63/2 92/92/2 93/93/2 62/62/2
f 62/62/2 93/93/2 94/94/2 61/61/2
f 61/61/2 94/94/2 95/95/2 60/60/2
f 60/60/2 95/95/2 96/96/2 59/59/2
f 59/59/2 96/96/2 97/97/2 58/58/2
f 58/58/2 97/97/2 98/98/2 57/57/2
f 57/57/2 98/98/2 99/99/2 56/56/2
f 56/56/2 99/99/2 100/100/2 55/55/2
f 1/1/1 2/2/1 32/32/1 31/31/1
f 31/31/1 32/32/1 33/33/1 30/30/1
f 30/30/1 33/33/1 34/34/1 29/29/1
f 29/29/1 34/34/1 35/35/1 28/28/1
f 28/28/1 35/35/1 36/36/1 27/27/1
f 27/27/1 36/36/1 37/37/1 26/26/1
f 26/26/1 37/37/1 38/38/1 25/25/1
f 25/25/1 38/38/1 39/39/1 24/24/1
f 24/24/1 39/39/1 40/40/1 23/23/1
f 23/23/1 40/40/1 41/41/1 22/22/1
f 22/22/1 41/41/1 42/42/1 21/21/1
f 21/21/1 42/42/1 43/43/1 20/20/1
f 20/20/1 43/43/1 44/44/1 19/19/1
f 19/19/1 44/44/1 45/45/1 18/18/1
f 18/18/1 45/45/1 46/46/1 17/17/1
f 17/17/1 46/46/1 47/47/1 16/16/1
f 16/16/1 47/47/1 48/48/1 15/15/1
f 15/15/1 48/48/1 49/49/1 14/14/1
f 14/14/1 49/49/1 50/50/1 13/13/1
f 13/13/1 50/50/1 51/51/1 12/12/1
f 12/12/1 51/51/1 52/52/1 11/11/1
f 11/11/1 52/52/1 53/53/1 10/10/1
f 10/10/1 53/53/1 54/54/1 9/9/1
