# Blender 3.3.1
# www.blender.org
o basic-6ls-node-2
v 15.999982 0.000001 -32.000008
v -16.000017 -0.000001 -31.999990
v 16.000017 0.000001 31.999990
v -15.999982 -0.000001 32.000008
v -0.000018 -0.000000 -32.000000
v -14.000011 -0.056251 -19.999992
v -14.000018 -0.000001 -31.999992
v -13.999982 -0.000001 32.000008
v 14.000018 0.000001 31.999992
v 13.999982 0.000001 -32.000008
v -14.000013 -0.037501 -23.999992
v -14.000016 -0.018751 -27.999992
v 14.000018 -0.299999 31.999992
v 0.000018 -0.300000 32.000000
v -13.999982 -0.300001 32.000008
v -14.000009 -0.075001 -15.999992
v -14.000007 -0.093751 -11.999992
v -14.000005 -0.112501 -7.999992
v -14.000002 -0.131251 -3.999992
v -14.000000 -0.150001 0.000008
v -13.999998 -0.168751 4.000008
v -13.999995 -0.187501 8.000008
v -13.999993 -0.206251 12.000008
v -13.999991 -0.225001 16.000008
v -13.999989 -0.243751 20.000008
v -13.999987 -0.262501 24.000008
v 14.000016 0.000001 27.999992
v 16.000015 0.000001 27.999990
v -13.999984 -0.000001 28.000008
v -15.999984 -0.000001 28.000010
v 14.000016 -0.281249 27.999992
v 0.000016 -0.281250 28.000000
v -13.999984 -0.281251 28.000008
v -0.000016 -0.018750 -28.000000
v -0.000014 -0.037500 -24.000000
v -0.000011 -0.056250 -20.000000
v -0.000009 -0.075000 -16.000000
v -0.000007 -0.093750 -12.000000
v -0.000005 -0.112500 -8.000000
v -0.000002 -0.131250 -4.000000
v 0.000000 -0.150000 -0.000000
v 0.000002 -0.168750 4.000000
v 0.000005 -0.187500 8.000000
v 0.000007 -0.206250 12.000000
v 0.000009 -0.225000 16.000000
v 0.000011 -0.243750 20.000000
v 0.000014 -0.262500 24.000000
v 13.999984 -0.018749 -28.000008
v 13.999987 -0.037499 -24.000008
v 13.999989 -0.056249 -20.000008
v 13.999991 -0.074999 -16.000008
v 13.999993 -0.093749 -12.000008
v 13.999995 -0.112499 -8.000008
v 13.999998 -0.131249 -4.000008
v 14.000000 -0.149999 -0.000008
v 14.000002 -0.168749 3.999992
v 14.000005 -0.187499 7.999992
v 14.000007 -0.206249 11.999992
v 14.000009 -0.224999 15.999992
v 14.000011 -0.243749 19.999992
v 14.000013 -0.262499 23.999992
v -16.000015 -0.000001 -27.999990
v -16.000013 -0.000001 -23.999990
v -16.000011 -0.000001 -19.999990
v -16.000010 -0.000001 -15.999991
v -16.000008 -0.000001 -11.999991
v -16.000004 -0.000001 -7.999991
v -16.000002 -0.000001 -3.999991
v -16.000000 -0.000001 0.000009
v -15.999998 -0.000001 4.000009
v -15.999995 -0.000001 8.000009
v -15.999993 -0.000001 12.000009
v -15.999991 -0.000001 16.000010
v -15.999989 -0.000001 20.000010
v -15.999987 -0.000001 24.000010
v -14.000016 -0.000001 -27.999992
v -14.000013 -0.000001 -23.999992
v -14.000011 -0.000001 -19.999992
v -14.000009 -0.000001 -15.999992
v -14.000007 -0.000001 -11.999992
v -14.000005 -0.000001 -7.999992
v -14.000002 -0.000001 -3.999992
v -14.000000 -0.000001 0.000008
v -13.999998 -0.000001 4.000008
v -13.999995 -0.000001 8.000008
v -13.999993 -0.000001 12.000008
v -13.999991 -0.000001 16.000008
v -13.999989 -0.000001 20.000008
v -13.999987 -0.000001 24.000008
v 16.000013 0.000001 23.999990
v 16.000011 0.000001 19.999990
v 16.000010 0.000001 15.999991
v 16.000008 0.000001 11.999991
v 16.000004 0.000001 7.999991
v 16.000002 0.000001 3.999991
v 16.000000 0.000001 -0.000009
v 15.999998 0.000001 -4.000009
v 15.999995 0.000001 -8.000009
v 15.999993 0.000001 -12.000009
v 15.999991 0.000001 -16.000010
v 15.999989 0.000001 -20.000010
v 15.999987 0.000001 -24.000010
v 15.999984 0.000001 -28.000010
v 13.999984 0.000001 -28.000008
v 13.999987 0.000001 -24.000008
v 13.999989 0.000001 -20.000008
v 13.999991 0.000001 -16.000008
v 13.999993 0.000001 -12.000008
v 13.999995 0.000001 -8.000008
v 13.999998 0.000001 -4.000008
v 14.000000 0.000001 -0.000008
v 14.000002 0.000001 3.999992
v 14.000005 0.000001 7.999992
v 14.000007 0.000001 11.999992
v 14.000009 0.000001 15.999992
v 14.000011 0.000001 19.999992
v 14.000013 0.000001 23.999992
vn -0.0000 1.0000 -0.0000
vn -1.0000 -0.0000 -0.0000
vn 1.0000 -0.0000 -0.0000
vn -0.0000 1.0000 0.0047
vt 0.500573 0.000484
vt 0.998883 0.000484
vt 0.500573 1.000469
vt 0.998883 1.000469
vt 0.750179 0.000471
vt 0.969255 0.187971
vt 0.503377 0.187969
vt 0.503377 0.000469
vt 0.969255 0.000471
vt 0.969758 0.000484
vt 0.969758 1.000469
vt 0.507746 1.000446
vt 0.529698 1.000469
vt 0.510759 0.000480
vt 0.531103 0.000471
vt 0.529698 0.000484
vt 0.510759 1.000469
vt 0.503377 0.125469
vt 0.969255 0.125471
vt 0.503377 0.062969
vt 0.969255 0.062971
vt 0.506391 0.000480
vt 0.531103 1.000469
vt 0.750178 1.000469
vt 0.969255 1.000469
vt 0.503377 1.000469
vt 0.969255 0.250469
vt 0.503377 0.250469
vt 0.969255 0.312969
vt 0.503377 0.312969
vt 0.969255 0.375469
vt 0.503377 0.375469
vt 0.969255 0.437969
vt 0.503377 0.437969
vt 0.969255 0.500469
vt 0.503377 0.500469
vt 0.969255 0.562969
vt 0.503377 0.562969
vt 0.969255 0.625469
vt 0.503377 0.625469
vt 0.969255 0.687969
vt 0.503377 0.687969
vt 0.969255 0.750469
vt 0.503377 0.750469
vt 0.969255 0.812969
vt 0.503377 0.812969
vt 0.969255 0.875469
vt 0.503377 0.875469
vt 0.529698 0.937970
vt 0.510759 0.062979
vt 0.500573 0.937970
vt 0.969758 0.937970
vt 0.507473 0.937948
vt 0.998883 0.937970
vt 0.531103 0.937969
vt 0.506664 0.062979
vt 0.750178 0.937969
vt 0.503377 0.937969
vt 0.969255 0.937969
vt 0.750179 0.062971
vt 0.750179 0.125471
vt 0.750179 0.187969
vt 0.750178 0.250469
vt 0.750178 0.312969
vt 0.750178 0.375469
vt 0.750178 0.437969
vt 0.750178 0.500469
vt 0.750178 0.562969
vt 0.750178 0.625469
vt 0.750178 0.687969
vt 0.750178 0.750469
vt 0.750178 0.812969
vt 0.750178 0.875469
vt 0.531103 0.062971
vt 0.510486 0.937969
vt 0.531103 0.125471
vt 0.510213 0.875471
vt 0.531103 0.187969
vt 0.509940 0.812971
vt 0.531103 0.250469
vt 0.509667 0.750471
vt 0.531103 0.312969
vt 0.509394 0.687973
vt 0.531103 0.375469
vt 0.509121 0.625473
vt 0.531103 0.437969
vt 0.508848 0.562975
vt 0.531103 0.500469
vt 0.508575 0.500475
vt 0.508302 0.437975
vt 0.531103 0.562969
vt 0.531103 0.625469
vt 0.508029 0.375477
vt 0.531103 0.687969
vt 0.507756 0.312977
vt 0.531103 0.750469
vt 0.507483 0.250477
vt 0.531103 0.812969
vt 0.507210 0.187978
vt 0.531103 0.875469
vt 0.506937 0.125478
vt 0.998883 0.062984
vt 0.998883 0.125482
vt 0.998883 0.187982
vt 0.998883 0.250480
vt 0.998883 0.312980
vt 0.998883 0.375479
vt 0.998883 0.437979
vt 0.998883 0.500477
vt 0.998883 0.562977
vt 0.998883 0.625475
vt 0.998883 0.687975
vt 0.998883 0.750473
vt 0.998883 0.812973
vt 0.998883 0.875471
vt 0.503650 0.062967
vt 0.969758 0.062984
vt 0.503923 0.125467
vt 0.969758 0.125482
vt 0.969758 0.187982
vt 0.504196 0.187965
vt 0.969758 0.250480
vt 0.504469 0.250463
vt 0.969758 0.312980
vt 0.504742 0.312961
vt 0.969758 0.375479
vt 0.505015 0.375461
vt 0.969758 0.437979
vt 0.505288 0.437959
vt 0.969758 0.500477
vt 0.505562 0.500458
vt 0.969758 0.562977
vt 0.505835 0.562958
vt 0.969758 0.625475
vt 0.506108 0.625456
vt 0.969758 0.687975
vt 0.506380 0.687954
vt 0.969758 0.750473
vt 0.506654 0.750452
vt 0.969758 0.812973
vt 0.506927 0.812952
vt 0.969758 0.875471
vt 0.507200 0.875450
vt 0.500573 0.875471
vt 0.500573 0.812973
vt 0.500573 0.750473
vt 0.500573 0.687975
vt 0.500573 0.625475
vt 0.500573 0.562977
vt 0.500573 0.500477
vt 0.500573 0.437979
vt 0.500573 0.375479
vt 0.500573 0.312980
vt 0.500573 0.250480
vt 0.500573 0.187982
vt 0.500573 0.125482
vt 0.500573 0.062984
vt 0.510759 0.937969
vt 0.529698 0.062984
vt 0.529698 0.125482
vt 0.510759 0.875471
vt 0.510759 0.812971
vt 0.529698 0.187982
vt 0.529698 0.250480
vt 0.510759 0.750471
vt 0.529698 0.312980
vt 0.510759 0.687973
vt 0.529698 0.375478
vt 0.510759 0.625473
vt 0.529698 0.437978
vt 0.510759 0.562975
vt 0.529698 0.500477
vt 0.510759 0.500475
vt 0.529698 0.562977
vt 0.510759 0.437975
vt 0.529698 0.625475
vt 0.510759 0.375477
vt 0.529698 0.687975
vt 0.510759 0.312977
vt 0.529698 0.750473
vt 0.510759 0.250477
vt 0.529698 0.812973
vt 0.510759 0.187978
vt 0.529698 0.875471
vt 0.510759 0.125478
s 0
f 115/180/1 93/147/1 114/178/1
f 9/13/1 28/51/1 27/49/1
f 70/110/1 83/130/1 69/109/1
f 106/162/2 49/77/2 50/79/2
f 78/121/3 11/18/3 77/118/3
f 113/177/2 56/90/2 57/93/2
f 117/184/1 91/145/1 116/182/1
f 116/182/1 92/146/1 115/180/1
f 12/20/3 77/118/3 11/18/3
f 5/5/4 48/74/4 10/15/4
f 8/12/3 33/58/3 29/53/3
f 46/72/4 61/100/4 60/98/4
f 45/71/4 60/98/4 59/96/4
f 44/70/4 59/96/4 58/94/4
f 43/69/4 58/94/4 57/92/4
f 42/68/4 57/92/4 56/91/4
f 41/67/4 56/91/4 55/88/4
f 40/66/4 55/88/4 54/86/4
f 39/65/4 54/86/4 53/84/4
f 38/64/4 53/84/4 52/82/4
f 37/63/4 52/82/4 51/80/4
f 36/62/4 51/80/4 50/78/4
f 35/61/4 50/78/4 49/76/4
f 34/60/4 49/76/4 48/74/4
f 12/21/4 35/61/4 34/60/4
f 11/19/4 36/62/4 35/61/4
f 6/6/4 37/63/4 36/62/4
f 16/27/4 38/64/4 37/63/4
f 17/29/4 39/65/4 38/64/4
f 18/31/4 40/66/4 39/65/4
f 19/33/4 41/67/4 40/66/4
f 20/35/4 42/68/4 41/67/4
f 21/37/4 43/69/4 42/68/4
f 44/70/4 22/39/4 23/41/4
f 23/41/4 45/71/4 44/70/4
f 24/43/4 46/72/4 45/71/4
f 25/45/4 47/73/4 46/72/4
f 32/57/4 26/47/4 33/59/4
f 27/49/1 90/144/1 117/184/1
f 13/23/4 32/57/4 14/24/4
f 29/52/1 4/4/1 8/11/1
f 7/9/4 34/60/4 5/5/4
f 62/102/1 7/10/1 2/2/1
f 63/103/1 76/117/1 62/102/1
f 64/104/1 77/119/1 63/103/1
f 65/105/1 78/120/1 64/104/1
f 66/106/1 79/122/1 65/105/1
f 67/107/1 80/124/1 66/106/1
f 68/108/1 81/126/1 67/107/1
f 69/109/1 82/128/1 68/108/1
f 31/55/4 47/73/4 32/57/4
f 71/111/1 84/132/1 70/110/1
f 72/112/1 85/134/1 71/111/1
f 73/113/1 86/136/1 72/112/1
f 74/114/1 87/138/1 73/113/1
f 9/14/2 31/56/2 13/22/2
f 75/115/1 88/140/1 74/114/1
f 104/159/1 1/1/1 10/16/1
f 105/160/1 103/157/1 104/159/1
f 106/163/1 102/156/1 105/160/1
f 107/164/1 101/155/1 106/163/1
f 108/166/1 100/154/1 107/164/1
f 109/168/1 99/153/1 108/166/1
f 110/170/1 98/152/1 109/168/1
f 111/172/1 97/151/1 110/170/1
f 112/174/1 96/150/1 111/172/1
f 113/176/1 95/149/1 112/174/1
f 114/178/1 94/148/1 113/176/1
f 89/142/1 30/54/1 29/52/1
f 59/97/2 116/183/2 115/181/2
f 114/179/2 57/93/2 58/95/2
f 58/95/2 115/181/2 114/179/2
f 112/175/2 55/89/2 56/90/2
f 27/50/2 61/101/2 31/56/2
f 60/99/2 117/185/2 116/183/2
f 54/87/2 111/173/2 110/171/2
f 110/171/2 53/85/2 54/87/2
f 52/83/2 109/169/2 108/167/2
f 108/167/2 51/81/2 52/83/2
f 50/79/2 107/165/2 106/162/2
f 104/158/2 10/17/2 48/75/2
f 48/75/2 105/161/2 104/158/2
f 29/53/3 26/48/3 89/143/3
f 89/143/3 25/46/3 88/141/3
f 87/139/3 23/42/3 86/137/3
f 86/137/3 22/40/3 85/135/3
f 85/135/3 21/38/3 84/133/3
f 88/141/3 24/44/3 87/139/3
f 20/36/3 84/133/3 21/38/3
f 83/131/3 19/34/3 82/129/3
f 18/32/3 82/129/3 19/34/3
f 81/127/3 17/30/3 80/125/3
f 16/28/3 80/125/3 17/30/3
f 6/7/3 79/123/3 16/28/3
f 12/20/3 7/8/3 76/116/3
f 14/24/4 33/59/4 15/25/4
f 115/180/1 92/146/1 93/147/1
f 9/13/1 3/3/1 28/51/1
f 70/110/1 84/132/1 83/130/1
f 106/162/2 105/161/2 49/77/2
f 78/121/3 6/7/3 11/18/3
f 113/177/2 112/175/2 56/90/2
f 117/184/1 90/144/1 91/145/1
f 116/182/1 91/145/1 92/146/1
f 12/20/3 76/116/3 77/118/3
f 5/5/4 34/60/4 48/74/4
f 8/12/3 15/26/3 33/58/3
f 46/72/4 47/73/4 61/100/4
f 45/71/4 46/72/4 60/98/4
f 44/70/4 45/71/4 59/96/4
f 43/69/4 44/70/4 58/94/4
f 42/68/4 43/69/4 57/92/4
f 41/67/4 42/68/4 56/91/4
f 40/66/4 41/67/4 55/88/4
f 39/65/4 40/66/4 54/86/4
f 38/64/4 39/65/4 53/84/4
f 37/63/4 38/64/4 52/82/4
f 36/62/4 37/63/4 51/80/4
f 35/61/4 36/62/4 50/78/4
f 34/60/4 35/61/4 49/76/4
f 12/21/4 11/19/4 35/61/4
f 11/19/4 6/6/4 36/62/4
f 6/6/4 16/27/4 37/63/4
f 16/27/4 17/29/4 38/64/4
f 17/29/4 18/31/4 39/65/4
f 18/31/4 19/33/4 40/66/4
f 19/33/4 20/35/4 41/67/4
f 20/35/4 21/37/4 42/68/4
f 21/37/4 22/39/4 43/69/4
f 44/70/4 43/69/4 22/39/4
f 23/41/4 24/43/4 45/71/4
f 24/43/4 25/45/4 46/72/4
f 25/45/4 26/47/4 47/73/4
f 32/57/4 47/73/4 26/47/4
f 27/49/1 28/51/1 90/144/1
f 13/23/4 31/55/4 32/57/4
f 29/52/1 30/54/1 4/4/1
f 7/9/4 12/21/4 34/60/4
f 62/102/1 76/117/1 7/10/1
f 63/103/1 77/119/1 76/117/1
f 64/104/1 78/120/1 77/119/1
f 65/105/1 79/122/1 78/120/1
f 66/106/1 80/124/1 79/122/1
f 67/107/1 81/126/1 80/124/1
f 68/108/1 82/128/1 81/126/1
f 69/109/1 83/130/1 82/128/1
f 31/55/4 61/100/4 47/73/4
f 71/111/1 85/134/1 84/132/1
f 72/112/1 86/136/1 85/134/1
f 73/113/1 87/138/1 86/136/1
f 74/114/1 88/140/1 87/138/1
f 9/14/2 27/50/2 31/56/2
f 75/115/1 89/142/1 88/140/1
f 104/159/1 103/157/1 1/1/1
f 105/160/1 102/156/1 103/157/1
f 106/163/1 101/155/1 102/156/1
f 107/164/1 100/154/1 101/155/1
f 108/166/1 99/153/1 100/154/1
f 109/168/1 98/152/1 99/153/1
f 110/170/1 97/151/1 98/152/1
f 111/172/1 96/150/1 97/151/1
f 112/174/1 95/149/1 96/150/1
f 113/176/1 94/148/1 95/149/1
f 114/178/1 93/147/1 94/148/1
f 89/142/1 75/115/1 30/54/1
f 59/97/2 60/99/2 116/183/2
f 114/179/2 113/177/2 57/93/2
f 58/95/2 59/97/2 115/181/2
f 112/175/2 111/173/2 55/89/2
f 27/50/2 117/185/2 61/101/2
f 60/99/2 61/101/2 117/185/2
f 54/87/2 55/89/2 111/173/2
f 110/171/2 109/169/2 53/85/2
f 52/83/2 53/85/2 109/169/2
f 108/167/2 107/165/2 51/81/2
f 50/79/2 51/81/2 107/165/2
f 48/75/2 49/77/2 105/161/2
f 29/53/3 33/58/3 26/48/3
f 89/143/3 26/48/3 25/46/3
f 87/139/3 24/44/3 23/42/3
f 86/137/3 23/42/3 22/40/3
f 85/135/3 22/40/3 21/38/3
f 88/141/3 25/46/3 24/44/3
f 20/36/3 83/131/3 84/133/3
f 83/131/3 20/36/3 19/34/3
f 18/32/3 81/127/3 82/129/3
f 81/127/3 18/32/3 17/30/3
f 16/28/3 79/123/3 80/125/3
f 6/7/3 78/121/3 79/123/3
f 14/24/4 32/57/4 33/59/4
