# Blender 3.3.1
# www.blender.org
g basic-6ls-node-1.001_Plane.008
v -15.999958 0.000000 32.000019
v 16.000042 0.000000 31.999979
v -16.000042 0.000000 -31.999979
v 15.999958 0.000000 -32.000019
v 0.000042 0.000000 32.000000
v -0.000042 0.000000 -32.000000
v 14.000042 0.000000 31.999981
v 13.999958 0.000000 -32.000019
v -14.000042 0.000000 -31.999981
v -13.999958 0.000000 32.000019
v 9.962416 0.000000 -32.000011
v 11.981187 0.000000 -32.000015
v -16.000036 0.000000 -27.999979
v -16.000031 0.000000 -23.999979
v -16.000027 0.000000 -19.999979
v -16.000021 0.000000 -15.999979
v -16.000015 0.000000 -11.999979
v -16.000010 0.000000 -7.999979
v -16.000006 0.000000 -3.999979
v -16.000000 0.000000 0.000021
v -15.999995 0.000000 4.000021
v -15.999990 0.000000 8.000021
v -15.999985 0.000000 12.000021
v -15.999979 0.000000 16.000021
v -15.999974 0.000000 20.000021
v -15.999969 0.000000 24.000021
v 16.000031 0.000000 23.999979
v 16.000027 0.000000 19.999979
v 16.000021 0.000000 15.999979
v 16.000015 0.000000 11.999979
v 16.000010 0.000000 7.999979
v 16.000006 0.000000 3.999979
v 16.000000 0.000000 -0.000021
v 15.999995 0.000000 -4.000021
v 15.999990 0.000000 -8.000021
v 15.999985 0.000000 -12.000021
v 15.999979 0.000000 -16.000021
v 15.999974 0.000000 -20.000021
v 15.999969 0.000000 -24.000021
v 15.999964 0.000000 -28.000021
v 0.000031 0.000000 24.000000
v 0.000026 0.000000 20.000000
v 0.000021 0.000000 16.000000
v 0.000016 0.000000 12.000000
v 0.000010 0.000000 8.000000
v 0.000005 0.000000 4.000000
v 0.000000 0.000000 0.000000
v -0.000005 0.000000 -4.000000
v -0.000010 0.000000 -8.000000
v -0.000016 0.000000 -12.000000
v -0.000021 0.000000 -16.000000
v -0.000026 0.000000 -20.000000
v -0.000031 0.000000 -24.000000
v -0.000036 0.000000 -28.000000
v 14.000031 0.000000 23.999981
v 14.000026 0.000000 19.999981
v 14.000021 0.000000 15.999982
v 14.000015 0.000000 11.999982
v 14.000010 0.000000 7.999982
v 14.000005 0.000000 3.999982
v 14.000000 0.000000 -0.000018
v 13.999995 0.000000 -4.000018
v 13.999990 0.000000 -8.000018
v 13.999985 0.000000 -12.000018
v 13.999979 0.000000 -16.000019
v 13.999974 0.000000 -20.000019
v 13.999969 0.000000 -24.000019
v 13.999964 0.000000 -28.000019
v -13.999969 0.000000 24.000019
v -13.999974 0.000000 20.000019
v -13.999979 0.000000 16.000019
v -13.999985 0.000000 12.000018
v -13.999990 0.000000 8.000018
v -13.999995 0.000000 4.000018
v -14.000000 0.000000 0.000018
v -14.000005 0.000000 -3.999982
v -14.000010 0.000000 -7.999982
v -14.000015 0.000000 -11.999982
v -14.000021 0.000000 -15.999982
v -14.000026 0.000000 -19.999981
v -14.000031 0.000000 -23.999981
v -14.000036 0.000000 -27.999981
v 9.962489 0.000000 23.999987
v 9.962483 0.000000 19.999987
v 9.962479 0.000000 15.999987
v 9.962473 0.000000 11.999987
v 9.962468 0.000000 7.999987
v 9.962462 0.000000 3.999987
v 9.962458 0.000000 -0.000013
v 9.962453 0.000000 -4.000013
v 9.962447 0.000000 -8.000013
v 9.962442 0.000000 -12.000013
v 9.962437 0.000000 -16.000013
v 9.962432 0.000000 -20.000013
v 9.962426 0.000000 -24.000013
v 9.962421 0.000000 -28.000013
v 11.981260 0.000000 23.999985
v 11.981255 0.000000 19.999985
v 11.981250 0.000000 15.999985
v 11.981244 0.000000 11.999985
v 11.981239 0.000000 7.999984
v 11.981234 0.000000 3.999985
v 11.981229 0.000000 -0.000016
v 11.981224 0.000000 -4.000016
v 11.981218 0.000000 -8.000015
v 11.981214 0.000000 -12.000015
v 11.981208 0.000000 -16.000015
v 11.981203 0.000000 -20.000015
v 11.981197 0.000000 -24.000015
v 11.981193 0.000000 -28.000015
vn -0.0000 1.0000 -0.0000
vt 1.000990 0.000552
vt 0.000990 0.000552
vt 1.000990 1.000552
vt 0.000990 1.000552
vt 0.500990 0.000552
vt 0.500990 1.000552
vt 0.063490 0.000552
vt 0.063490 1.000552
vt 0.938490 1.000552
vt 0.938490 0.000552
vt 0.189663 1.000552
vt 0.126577 1.000552
vt 1.000990 0.938052
vt 1.000990 0.875552
vt 1.000990 0.813052
vt 1.000990 0.750552
vt 1.000990 0.688052
vt 1.000990 0.625552
vt 1.000990 0.563052
vt 1.000990 0.500552
vt 1.000990 0.438052
vt 1.000990 0.375552
vt 1.000990 0.313052
vt 1.000990 0.250552
vt 1.000990 0.188052
vt 1.000990 0.125552
vt 0.000990 0.125552
vt 0.000990 0.188052
vt 0.000990 0.250552
vt 0.000990 0.313052
vt 0.000990 0.375552
vt 0.000990 0.438052
vt 0.000990 0.500552
vt 0.000990 0.563052
vt 0.000990 0.625552
vt 0.000990 0.688052
vt 0.000990 0.750552
vt 0.000990 0.813052
vt 0.000990 0.875552
vt 0.000990 0.938052
vt 0.500990 0.125552
vt 0.500990 0.188052
vt 0.500990 0.250552
vt 0.500990 0.313052
vt 0.500990 0.375552
vt 0.500990 0.438052
vt 0.500990 0.500552
vt 0.500990 0.563052
vt 0.500990 0.625552
vt 0.500990 0.688052
vt 0.500990 0.750552
vt 0.500990 0.813052
vt 0.500990 0.875552
vt 0.500990 0.938052
vt 0.063490 0.125552
vt 0.063490 0.188052
vt 0.063490 0.250552
vt 0.063490 0.313052
vt 0.063490 0.375552
vt 0.063490 0.438052
vt 0.063490 0.500552
vt 0.063490 0.563052
vt 0.063490 0.625552
vt 0.063490 0.688052
vt 0.063490 0.750552
vt 0.063490 0.813052
vt 0.063490 0.875552
vt 0.063490 0.938052
vt 0.938490 0.125552
vt 0.938490 0.188052
vt 0.938490 0.250552
vt 0.938490 0.313052
vt 0.938490 0.375552
vt 0.938490 0.438052
vt 0.938490 0.500552
vt 0.938490 0.563052
vt 0.938490 0.625552
vt 0.938490 0.688052
vt 0.938490 0.750552
vt 0.938490 0.813052
vt 0.938490 0.875552
vt 0.938490 0.938052
vt 0.189664 0.125552
vt 0.189664 0.188052
vt 0.189663 0.250552
vt 0.189663 0.313052
vt 0.189664 0.375552
vt 0.189664 0.438052
vt 0.189664 0.500552
vt 0.189664 0.563052
vt 0.189664 0.625552
vt 0.189664 0.688052
vt 0.189663 0.750552
vt 0.189663 0.813052
vt 0.189663 0.875552
vt 0.189663 0.938052
vt 0.126577 0.125552
vt 0.126577 0.188052
vt 0.126577 0.250552
vt 0.126577 0.313052
vt 0.126577 0.375552
vt 0.126577 0.438052
vt 0.126577 0.500552
vt 0.126577 0.563052
vt 0.126577 0.625552
vt 0.126577 0.688052
vt 0.126577 0.750552
vt 0.126577 0.813052
vt 0.126577 0.875552
vt 0.126577 0.938052
s 0
f 40/40/1 8/8/1 68/68/1
f 82/82/1 3/3/1 13/13/1
f 54/54/1 9/9/1 82/82/1
f 68/68/1 12/12/1 110/110/1
f 96/96/1 6/6/1 54/54/1
f 110/110/1 11/11/1 96/96/1
f 40/40/1 4/4/1 8/8/1
f 41/41/1 5/5/1 83/83/1
f 97/97/1 84/84/1 83/83/1
f 98/98/1 85/85/1 84/84/1
f 99/99/1 86/86/1 85/85/1
f 100/100/1 87/87/1 86/86/1
f 101/101/1 88/88/1 87/87/1
f 102/102/1 89/89/1 88/88/1
f 103/103/1 90/90/1 89/89/1
f 104/104/1 91/91/1 90/90/1
f 105/105/1 92/92/1 91/91/1
f 106/106/1 93/93/1 92/92/1
f 107/107/1 94/94/1 93/93/1
f 108/108/1 95/95/1 94/94/1
f 109/109/1 96/96/1 95/95/1
f 82/82/1 9/9/1 3/3/1
f 7/7/1 55/55/1 97/97/1
f 83/83/1 42/42/1 41/41/1
f 84/84/1 43/43/1 42/42/1
f 85/85/1 44/44/1 43/43/1
f 86/86/1 45/45/1 44/44/1
f 87/87/1 46/46/1 45/45/1
f 88/88/1 47/47/1 46/46/1
f 89/89/1 48/48/1 47/47/1
f 90/90/1 49/49/1 48/48/1
f 91/91/1 50/50/1 49/49/1
f 92/92/1 51/51/1 50/50/1
f 93/93/1 52/52/1 51/51/1
f 94/94/1 53/53/1 52/52/1
f 95/95/1 54/54/1 53/53/1
f 5/5/1 41/41/1 69/69/1
f 2/2/1 55/55/1 7/7/1
f 55/55/1 98/98/1 97/97/1
f 56/56/1 99/99/1 98/98/1
f 57/57/1 100/100/1 99/99/1
f 58/58/1 101/101/1 100/100/1
f 59/59/1 102/102/1 101/101/1
f 60/60/1 103/103/1 102/102/1
f 61/61/1 104/104/1 103/103/1
f 62/62/1 105/105/1 104/104/1
f 63/63/1 106/106/1 105/105/1
f 64/64/1 107/107/1 106/106/1
f 65/65/1 108/108/1 107/107/1
f 66/66/1 109/109/1 108/108/1
f 67/67/1 110/110/1 109/109/1
f 54/54/1 6/6/1 9/9/1
f 7/7/1 97/97/1 83/83/1
f 41/41/1 70/70/1 69/69/1
f 42/42/1 71/71/1 70/70/1
f 43/43/1 72/72/1 71/71/1
f 44/44/1 73/73/1 72/72/1
f 45/45/1 74/74/1 73/73/1
f 46/46/1 75/75/1 74/74/1
f 47/47/1 76/76/1 75/75/1
f 48/48/1 77/77/1 76/76/1
f 49/49/1 78/78/1 77/77/1
f 50/50/1 79/79/1 78/78/1
f 51/51/1 80/80/1 79/79/1
f 52/52/1 81/81/1 80/80/1
f 53/53/1 82/82/1 81/81/1
f 2/2/1 27/27/1 55/55/1
f 5/5/1 7/7/1 83/83/1
f 69/69/1 25/25/1 26/26/1
f 70/70/1 24/24/1 25/25/1
f 71/71/1 23/23/1 24/24/1
f 72/72/1 22/22/1 23/23/1
f 73/73/1 21/21/1 22/22/1
f 74/74/1 20/20/1 21/21/1
f 75/75/1 19/19/1 20/20/1
f 76/76/1 18/18/1 19/19/1
f 77/77/1 17/17/1 18/18/1
f 78/78/1 16/16/1 17/17/1
f 79/79/1 15/15/1 16/16/1
f 80/80/1 14/14/1 15/15/1
f 81/81/1 13/13/1 14/14/1
f 10/10/1 69/69/1 26/26/1
f 10/10/1 26/26/1 1/1/1
f 27/27/1 56/56/1 55/55/1
f 28/28/1 57/57/1 56/56/1
f 29/29/1 58/58/1 57/57/1
f 30/30/1 59/59/1 58/58/1
f 31/31/1 60/60/1 59/59/1
f 32/32/1 61/61/1 60/60/1
f 33/33/1 62/62/1 61/61/1
f 34/34/1 63/63/1 62/62/1
f 35/35/1 64/64/1 63/63/1
f 36/36/1 65/65/1 64/64/1
f 37/37/1 66/66/1 65/65/1
f 38/38/1 67/67/1 66/66/1
f 39/39/1 68/68/1 67/67/1
f 5/5/1 69/69/1 10/10/1
f 68/68/1 8/8/1 12/12/1
f 96/96/1 11/11/1 6/6/1
f 110/110/1 12/12/1 11/11/1
f 97/97/1 98/98/1 84/84/1
f 98/98/1 99/99/1 85/85/1
f 99/99/1 100/100/1 86/86/1
f 100/100/1 101/101/1 87/87/1
f 101/101/1 102/102/1 88/88/1
f 102/102/1 103/103/1 89/89/1
f 103/103/1 104/104/1 90/90/1
f 104/104/1 105/105/1 91/91/1
f 105/105/1 106/106/1 92/92/1
f 106/106/1 107/107/1 93/93/1
f 107/107/1 108/108/1 94/94/1
f 108/108/1 109/109/1 95/95/1
f 109/109/1 110/110/1 96/96/1
f 83/83/1 84/84/1 42/42/1
f 84/84/1 85/85/1 43/43/1
f 85/85/1 86/86/1 44/44/1
f 86/86/1 87/87/1 45/45/1
f 87/87/1 88/88/1 46/46/1
f 88/88/1 89/89/1 47/47/1
f 89/89/1 90/90/1 48/48/1
f 90/90/1 91/91/1 49/49/1
f 91/91/1 92/92/1 50/50/1
f 92/92/1 93/93/1 51/51/1
f 93/93/1 94/94/1 52/52/1
f 94/94/1 95/95/1 53/53/1
f 95/95/1 96/96/1 54/54/1
f 55/55/1 56/56/1 98/98/1
f 56/56/1 57/57/1 99/99/1
f 57/57/1 58/58/1 100/100/1
f 58/58/1 59/59/1 101/101/1
f 59/59/1 60/60/1 102/102/1
f 60/60/1 61/61/1 103/103/1
f 61/61/1 62/62/1 104/104/1
f 62/62/1 63/63/1 105/105/1
f 63/63/1 64/64/1 106/106/1
f 64/64/1 65/65/1 107/107/1
f 65/65/1 66/66/1 108/108/1
f 66/66/1 67/67/1 109/109/1
f 67/67/1 68/68/1 110/110/1
f 41/41/1 42/42/1 70/70/1
f 42/42/1 43/43/1 71/71/1
f 43/43/1 44/44/1 72/72/1
f 44/44/1 45/45/1 73/73/1
f 45/45/1 46/46/1 74/74/1
f 46/46/1 47/47/1 75/75/1
f 47/47/1 48/48/1 76/76/1
f 48/48/1 49/49/1 77/77/1
f 49/49/1 50/50/1 78/78/1
f 50/50/1 51/51/1 79/79/1
f 51/51/1 52/52/1 80/80/1
f 52/52/1 53/53/1 81/81/1
f 53/53/1 54/54/1 82/82/1
f 69/69/1 70/70/1 25/25/1
f 70/70/1 71/71/1 24/24/1
f 71/71/1 72/72/1 23/23/1
f 72/72/1 73/73/1 22/22/1
f 73/73/1 74/74/1 21/21/1
f 74/74/1 75/75/1 20/20/1
f 75/75/1 76/76/1 19/19/1
f 76/76/1 77/77/1 18/18/1
f 77/77/1 78/78/1 17/17/1
f 78/78/1 79/79/1 16/16/1
f 79/79/1 80/80/1 15/15/1
f 80/80/1 81/81/1 14/14/1
f 81/81/1 82/82/1 13/13/1
f 27/27/1 28/28/1 56/56/1
f 28/28/1 29/29/1 57/57/1
f 29/29/1 30/30/1 58/58/1
f 30/30/1 31/31/1 59/59/1
f 31/31/1 32/32/1 60/60/1
f 32/32/1 33/33/1 61/61/1
f 33/33/1 34/34/1 62/62/1
f 34/34/1 35/35/1 63/63/1
f 35/35/1 36/36/1 64/64/1
f 36/36/1 37/37/1 65/65/1
f 37/37/1 38/38/1 66/66/1
f 38/38/1 39/39/1 67/67/1
f 39/39/1 40/40/1 68/68/1
